<mxfile host="65bd71144e">
    <diagram id="iuXNh0eOK1XOTNSb32b2" name="Page-1">
        <mxGraphModel dx="1242" dy="487" grid="1" gridSize="10" guides="1" tooltips="1" connect="1" arrows="1" fold="1" page="1" pageScale="1" pageWidth="1100" pageHeight="850" math="0" shadow="0">
            <root>
                <mxCell id="0"/>
                <mxCell id="1" parent="0"/>
                <mxCell id="4" value="" style="edgeStyle=none;html=1;" parent="1" source="2" target="3" edge="1">
                    <mxGeometry relative="1" as="geometry"/>
                </mxCell>
                <mxCell id="2" value="Presentation Layer" style="rounded=1;whiteSpace=wrap;html=1;verticalAlign=top;fontStyle=1;labelBackgroundColor=none;fillColor=#dae8fc;strokeColor=#6c8ebf;" parent="1" vertex="1">
                    <mxGeometry x="330" y="30" width="190" height="130" as="geometry"/>
                </mxCell>
                <mxCell id="6" value="" style="edgeStyle=none;html=1;" parent="1" source="3" target="5" edge="1">
                    <mxGeometry relative="1" as="geometry"/>
                </mxCell>
                <mxCell id="8" value="" style="edgeStyle=none;html=1;startArrow=classic;startFill=1;endArrow=none;endFill=0;fillColor=#d5e8d4;strokeColor=#000000;entryX=0.5;entryY=0;entryDx=0;entryDy=0;" parent="1" source="5" target="7" edge="1">
                    <mxGeometry relative="1" as="geometry"/>
                </mxCell>
                <mxCell id="14" value="Il domain layer contiene la logica di business centrale dell'applicazione, inclusi i modelli, i casi d'uso e le interfacce dei repository" style="text;whiteSpace=wrap;html=1;fontFamily=Helvetica;align=center;" parent="1" vertex="1">
                    <mxGeometry x="537.5" y="460" width="220" height="50" as="geometry"/>
                </mxCell>
                <mxCell id="15" value="Il data layer si occupa dell'accesso ai dati, inclusi i repository concreti e le sorgenti dati (e.g., API, database locali)." style="text;whiteSpace=wrap;html=1;fontFamily=Helvetica;align=center;" parent="1" vertex="1">
                    <mxGeometry x="545" y="600" width="215" height="50" as="geometry"/>
                </mxCell>
                <mxCell id="16" value="Il presentation layer si occupa di tutto ciÃ² che riguarda l'interfaccia utente, incluse le schermate, i widget e la logica di presentazione" style="text;whiteSpace=wrap;html=1;fontFamily=Helvetica;align=center;" parent="1" vertex="1">
                    <mxGeometry x="537.5" y="60" width="220" height="70" as="geometry"/>
                </mxCell>
                <mxCell id="17" value="L'application layer si occupa della configurazione generale dell'app, della gestione delle dipendenze e dell'inizializzazione dei vari componenti." style="text;whiteSpace=wrap;html=1;fontFamily=Helvetica;align=center;" parent="1" vertex="1">
                    <mxGeometry x="537.5" y="220" width="220" height="50" as="geometry"/>
                </mxCell>
                <mxCell id="32" value="" style="edgeStyle=none;html=1;" parent="1" source="22" target="23" edge="1">
                    <mxGeometry relative="1" as="geometry"/>
                </mxCell>
                <mxCell id="22" value="&lt;p class=&quot;MsoNormal&quot;&gt;screen&lt;/p&gt;" style="rounded=1;whiteSpace=wrap;html=1;labelBackgroundColor=none;fillColor=#1ba1e2;strokeColor=#006EAF;movable=1;resizable=1;rotatable=1;deletable=1;editable=1;connectable=1;fontFamily=Helvetica;fontColor=#ffffff;" parent="1" vertex="1">
                    <mxGeometry x="365" y="60" width="120" height="30" as="geometry"/>
                </mxCell>
                <mxCell id="23" value="&lt;p class=&quot;MsoNormal&quot;&gt;widget&lt;/p&gt;" style="rounded=1;whiteSpace=wrap;html=1;labelBackgroundColor=none;fillColor=#1ba1e2;strokeColor=#006EAF;movable=1;resizable=1;rotatable=1;deletable=1;editable=1;connectable=1;fontFamily=Helvetica;fontColor=#ffffff;" parent="1" vertex="1">
                    <mxGeometry x="365" y="110" width="120" height="30" as="geometry"/>
                </mxCell>
                <mxCell id="25" value="" style="group" parent="1" vertex="1" connectable="0">
                    <mxGeometry x="330" y="210" width="190" height="195" as="geometry"/>
                </mxCell>
                <mxCell id="3" value="Application Layer" style="rounded=1;whiteSpace=wrap;html=1;verticalAlign=top;fontStyle=1;labelBackgroundColor=none;fillColor=#ffe6cc;strokeColor=#d79b00;movable=1;resizable=1;rotatable=1;deletable=1;editable=1;connectable=1;" parent="25" vertex="1">
                    <mxGeometry width="190" height="195" as="geometry"/>
                </mxCell>
                <mxCell id="20" value="&lt;p class=&quot;MsoNormal&quot;&gt;main.dart&lt;/p&gt;" style="rounded=1;whiteSpace=wrap;html=1;labelBackgroundColor=none;fillColor=#f0a30a;strokeColor=#BD7000;movable=1;resizable=1;rotatable=1;deletable=1;editable=1;connectable=1;fontFamily=Helvetica;fontColor=#000000;" parent="25" vertex="1">
                    <mxGeometry x="35" y="45" width="120" height="30" as="geometry"/>
                </mxCell>
                <mxCell id="21" value="&lt;p class=&quot;MsoNormal&quot;&gt;app.dart&lt;/p&gt;" style="rounded=1;whiteSpace=wrap;html=1;labelBackgroundColor=none;fillColor=#f0a30a;strokeColor=#BD7000;movable=1;resizable=1;rotatable=1;deletable=1;editable=1;connectable=1;fontFamily=Helvetica;fontColor=#000000;" parent="25" vertex="1">
                    <mxGeometry x="35" y="95" width="120" height="30" as="geometry"/>
                </mxCell>
                <mxCell id="24" value="&lt;p class=&quot;MsoNormal&quot;&gt;provider&lt;/p&gt;" style="rounded=1;whiteSpace=wrap;html=1;labelBackgroundColor=none;fillColor=#f0a30a;strokeColor=#BD7000;movable=1;resizable=1;rotatable=1;deletable=1;editable=1;connectable=1;fontFamily=Helvetica;fontColor=#000000;" parent="25" vertex="1">
                    <mxGeometry x="35" y="145" width="120" height="30" as="geometry"/>
                </mxCell>
                <mxCell id="31" value="" style="group" parent="1" vertex="1" connectable="0">
                    <mxGeometry x="330" y="580" width="190" height="130" as="geometry"/>
                </mxCell>
                <mxCell id="7" value="&amp;nbsp; &amp;nbsp;Data Layer" style="rounded=1;whiteSpace=wrap;html=1;verticalAlign=top;fontStyle=1;labelBackgroundColor=none;fillColor=#d5e8d4;strokeColor=#82b366;align=left;movable=1;resizable=1;rotatable=1;deletable=1;editable=1;connectable=1;" parent="31" vertex="1">
                    <mxGeometry width="190" height="90" as="geometry"/>
                </mxCell>
                <mxCell id="10" value="repository" style="rounded=1;whiteSpace=wrap;html=1;labelBackgroundColor=none;fillColor=#60a917;fontColor=#ffffff;strokeColor=#2D7600;movable=1;resizable=1;rotatable=1;deletable=1;editable=1;connectable=1;" parent="31" vertex="1">
                    <mxGeometry x="27.94117647058824" y="40" width="134.11764705882354" height="30" as="geometry"/>
                </mxCell>
                <mxCell id="5" value="Domain Layer" style="rounded=1;whiteSpace=wrap;html=1;verticalAlign=top;fontStyle=1;labelBackgroundColor=none;fillColor=#e1d5e7;strokeColor=#9673a6;" parent="1" vertex="1">
                    <mxGeometry x="330" y="450" width="190" height="90" as="geometry"/>
                </mxCell>
                <mxCell id="18" value="&lt;p class=&quot;MsoNormal&quot;&gt;model&lt;/p&gt;" style="rounded=1;whiteSpace=wrap;html=1;labelBackgroundColor=none;fillColor=#76608a;strokeColor=#432D57;movable=1;resizable=1;rotatable=1;deletable=1;editable=1;connectable=1;fontFamily=Helvetica;fontColor=#ffffff;" parent="1" vertex="1">
                    <mxGeometry x="365" y="487.5" width="120" height="30" as="geometry"/>
                </mxCell>
            </root>
        </mxGraphModel>
    </diagram>
</mxfile>